<?xml version="1.0" encoding="UTF-8"?>
<svg version="1.1" xmlns="http://www.w3.org/2000/svg" width="225" height="225">
<path d="M0 0 C1.15328998 0.00250371 1.15328998 0.00250371 2.32987875 0.00505799 C4.91410339 0.01315288 7.49800121 0.03569501 10.08213806 0.05815125 C11.93152488 0.06693776 13.78091601 0.07485138 15.63031006 0.08195496 C20.65911481 0.10388957 25.6877624 0.13844637 30.71647573 0.17548394 C35.97125638 0.21234243 41.22609066 0.23858934 46.48092651 0.26620483 C55.30540571 0.3141734 64.1298085 0.36994434 72.95420837 0.43070984 C83.16806949 0.50098537 93.38194874 0.56078749 103.59590918 0.61456901 C114.45422919 0.67184272 125.31249465 0.73664789 136.17075801 0.80372596 C139.30679695 0.82259256 142.44284115 0.84005538 145.57888985 0.85721779 C150.49952577 0.88452718 155.42010356 0.9168727 160.34068108 0.95317841 C162.15073425 0.96576447 163.96080006 0.97665935 165.77087402 0.9857769 C168.23329365 0.99847495 170.6955927 1.01722253 173.15795898 1.03759766 C173.88158522 1.03994 174.60521146 1.04228235 175.35076576 1.04469568 C180.28712742 1.09509417 180.28712742 1.09509417 182.51548767 2.20927429 C181.85774055 19.58037861 180.21359806 36.87257295 178.65294957 54.1799953 C178.26712813 58.46648336 177.88514152 62.7533134 177.50265503 67.0401001 C176.86023007 74.23415054 176.21524734 81.42796776 175.56846619 88.62162781 C174.74376988 97.79423256 173.92323623 106.96720458 173.10405827 116.14030361 C172.39282841 124.10431777 171.67976041 132.06816721 170.96636271 140.03198743 C170.74045797 142.5545285 170.51477889 145.07708968 170.28912544 147.59965324 C168.77860479 164.47772327 167.26558963 181.3539482 165.51548767 198.20927429 C161.59432712 199.93888374 157.81090796 201.53865602 153.66368103 202.647995 C152.32949379 203.00901054 152.32949379 203.00901054 150.96835327 203.37731934 C150.02355606 203.62737228 149.07875885 203.87742523 148.10533142 204.13505554 C147.10200272 204.40512924 146.09867401 204.67520294 145.06494141 204.95346069 C141.86224126 205.81444026 138.65769463 206.66829826 135.45298767 207.52177429 C132.31534964 208.36270305 129.17810602 209.20508494 126.04103088 210.04811096 C123.95911716 210.60601526 121.8764105 211.16096898 119.79292297 211.71296692 C114.64299955 213.08050919 109.51294241 214.49021031 104.4026947 215.99980164 C103.42248856 216.28381332 102.44228241 216.56782501 101.43237305 216.86044312 C99.59992537 217.39356357 97.77136374 217.94033219 95.9480896 218.50402832 C85.22486107 221.59094851 76.03520291 218.77482614 65.56236267 215.75224304 C64.34454102 215.40800797 63.12671936 215.06377289 61.87199402 214.70910645 C58.65349048 213.79769677 55.43723156 212.8790807 52.22184753 211.95677185 C48.98944608 211.03151421 45.7543056 210.11594315 42.51939392 209.19950867 C36.64625559 207.53347153 30.77487116 205.86152615 24.90696716 204.17713928 C22.47233266 203.48234001 20.03635391 202.79483994 17.59764099 202.11470032 C16.62980368 201.84302898 16.62980368 201.84302898 15.64241409 201.56586933 C13.82940384 201.05723224 12.01551679 200.55172346 10.20158386 200.04638672 C7.51548767 199.20927429 7.51548767 199.20927429 6.51548767 198.20927429 C6.22953674 196.07510009 6.00793607 193.93229839 5.81040955 191.78813171 C5.74651031 191.10775723 5.68261108 190.42738274 5.61677551 189.72639084 C5.4015972 187.42288835 5.19294404 185.1188403 4.98423767 182.81474304 C4.83116121 181.16070218 4.67770936 179.50669602 4.52391052 177.85272217 C4.10357874 173.31870859 3.68909399 168.78417738 3.27586365 164.24951172 C2.92860526 160.44487115 2.57845055 156.64049941 2.22831726 152.83612251 C1.28551614 142.59065536 0.34982711 132.34454887 -0.58308411 122.09817696 C-1.29991116 114.22755124 -2.02038165 106.35726428 -2.74232483 98.48710632 C-3.79233535 87.03832534 -4.8365548 75.58902655 -5.87684631 64.13935852 C-6.28087203 59.69353976 -6.68674466 55.24789542 -7.09413147 50.80238342 C-7.57687281 45.53211328 -8.05508308 40.2614505 -8.52990723 34.99046135 C-8.70547779 33.04938733 -8.88256695 31.10844995 -9.06130981 29.16766548 C-10.9605293 8.52284607 -10.9605293 8.52284607 -10.48451233 2.20927429 C-6.84329103 -0.21820657 -4.20365106 -0.05264509 0 0 Z " fill="#E34D27" transform="translate(26.484512329101563,1.7907257080078125)"/>
<path d="M0 0 C39.93 0 79.86 0 121 0 C120 17 120 17 119 25 C88.64 25 58.28 25 27 25 C27.33 29.29 27.66 33.58 28 38 C28 41.63 28 45.26 28 49 C57.37 49 86.74 49 117 49 C114.71138403 77.60769957 114.71138403 77.60769957 113.4375 91.75 C113.18521431 94.55720453 112.93404214 97.364506 112.68359375 100.171875 C112.50739502 102.14124023 112.50739502 102.14124023 112.32763672 104.15039062 C111.91992752 108.94082175 111.58163883 113.73491327 111.26586914 118.53222656 C111 121 111 121 110 123 C107.64772045 123.89005172 105.34329977 124.65905145 102.9375 125.375 C102.22086182 125.59341553 101.50422363 125.81183105 100.76586914 126.03686523 C94.54855571 127.90144793 88.27773745 129.4997235 81.96875 131.01953125 C79.26525223 131.67470203 76.58376752 132.38238951 73.90625 133.13671875 C73.23988525 133.32290771 72.57352051 133.50909668 71.88696289 133.70092773 C70.05701193 134.2163391 68.22958067 134.74067296 66.40234375 135.265625 C62.24411691 136.16315272 58.03098068 137.02278852 54.09765625 135.04199219 C51.73383591 133.86778534 49.72623112 133.49533928 47.12109375 133.09375 C40.33267148 131.9384659 33.7208561 130.24203296 27.0625 128.5 C25.85787109 128.19191406 24.65324219 127.88382812 23.41210938 127.56640625 C22.25646484 127.26605469 21.10082031 126.96570313 19.91015625 126.65625 C18.86996338 126.38619141 17.82977051 126.11613281 16.75805664 125.83789062 C11.70038446 124.30138262 11.70038446 124.30138262 10 123 C9.36230469 120.23779297 9.36230469 120.23779297 9.171875 116.7421875 C9.09453125 115.47632813 9.0171875 114.21046875 8.9375 112.90625 C8.87475734 111.56251131 8.81225921 110.21876118 8.75 108.875 C8.67265625 107.56789063 8.5953125 106.26078125 8.515625 104.9140625 C8.15696703 98.58631113 8 92.34568734 8 86 C15.92 86 23.84 86 32 86 C32.61767231 90.94137848 33.12325749 95.13940081 33.0625 100 C33.05347656 100.94875 33.04445312 101.8975 33.03515625 102.875 C33.02355469 103.57625 33.01195312 104.2775 33 105 C34.175625 105.2475 35.35125 105.495 36.5625 105.75 C39.61818204 106.40444529 42.56146836 107.17294955 45.55078125 108.09375 C53.71975913 110.56363504 59.68481165 111.44300682 68 109 C69.95313702 108.47094252 71.90634854 107.94212954 73.86132812 107.41992188 C75.78487538 106.89938872 77.70127704 106.35266189 79.6171875 105.8046875 C82.58384174 105.09899377 84.97544382 104.8274968 88 105 C87.98839844 104.2471875 87.97679687 103.494375 87.96484375 102.71875 C87.9097384 96.23206298 88.0498236 89.78603375 88.4375 83.3125 C88.47673584 82.61769531 88.51597168 81.92289062 88.55639648 81.20703125 C88.87690751 76.24618498 88.87690751 76.24618498 90 74 C62.28 74 34.56 74 6 74 C5.195625 65.5025 4.39125 57.005 3.5625 48.25 C3.31056885 45.61290039 3.0586377 42.97580078 2.79907227 40.25878906 C2.5961738 38.09443318 2.39359869 35.93004695 2.19140625 33.765625 C2.08856323 32.7019873 1.98572021 31.63834961 1.87976074 30.54248047 C0.93521133 20.35170426 0.51281599 10.25631979 0 0 Z " fill="#FEFBFA" transform="translate(52,44)"/>
<path d="M0 0 C1.15328998 0.00250371 1.15328998 0.00250371 2.32987875 0.00505799 C4.91410339 0.01315288 7.49800121 0.03569501 10.08213806 0.05815125 C11.93152488 0.06693776 13.78091601 0.07485138 15.63031006 0.08195496 C20.65911481 0.10388957 25.6877624 0.13844637 30.71647573 0.17548394 C35.97125638 0.21234243 41.22609066 0.23858934 46.48092651 0.26620483 C55.30540571 0.3141734 64.1298085 0.36994434 72.95420837 0.43070984 C83.16806949 0.50098537 93.38194874 0.56078749 103.59590918 0.61456901 C114.45422919 0.67184272 125.31249465 0.73664789 136.17075801 0.80372596 C139.30679695 0.82259256 142.44284115 0.84005538 145.57888985 0.85721779 C150.49952577 0.88452718 155.42010356 0.9168727 160.34068108 0.95317841 C162.15073425 0.96576447 163.96080006 0.97665935 165.77087402 0.9857769 C168.23329365 0.99847495 170.6955927 1.01722253 173.15795898 1.03759766 C173.88158522 1.03994 174.60521146 1.04228235 175.35076576 1.04469568 C180.28712742 1.09509417 180.28712742 1.09509417 182.51548767 2.20927429 C182.51548767 4.84927429 182.51548767 7.48927429 182.51548767 10.20927429 C182.18548767 10.20927429 181.85548767 10.20927429 181.51548767 10.20927429 C181.51548767 7.89927429 181.51548767 5.58927429 181.51548767 3.20927429 C118.48548767 3.53927429 55.45548767 3.86927429 -9.48451233 4.20927429 C-9.48451233 6.18927429 -9.48451233 8.16927429 -9.48451233 10.20927429 C-8.82451233 10.53927429 -8.16451233 10.86927429 -7.48451233 11.20927429 C-6.82451233 11.86927429 -6.16451233 12.52927429 -5.48451233 13.20927429 C-6.47451233 15.84927429 -7.46451233 18.48927429 -8.48451233 21.20927429 C-8.81451233 21.20927429 -9.14451233 21.20927429 -9.48451233 21.20927429 C-10.10563719 16.39555664 -10.59321725 11.62526037 -10.73451233 6.77177429 C-10.76029358 5.94806335 -10.78607483 5.12435242 -10.81263733 4.27568054 C-10.70435608 3.59376648 -10.59607483 2.91185242 -10.48451233 2.20927429 C-6.84329103 -0.21820657 -4.20365106 -0.05264509 0 0 Z " fill="#C24E32" transform="translate(26.484512329101563,1.7907257080078125)"/>
<path d="M0 0 C0.33 0 0.66 0 1 0 C1 1.65 1 3.3 1 5 C-29.36 5 -59.72 5 -91 5 C-91 8.3 -91 11.6 -91 15 C-93 13 -93 13 -93.1875 9.0625 C-93.16190316 6.32363845 -92.88664156 4.65992468 -92 2 C-61.64 2.33 -31.28 2.66 0 3 C0 2.01 0 1.02 0 0 Z " fill="#FED7C9" transform="translate(170,64)"/>
<path d="M0 0 C0.33 0 0.66 0 1 0 C1.02895225 3.29164829 1.0467823 6.58326399 1.0625 9.875 C1.07087891 10.81214844 1.07925781 11.74929687 1.08789062 12.71484375 C1.09111328 13.61074219 1.09433594 14.50664063 1.09765625 15.4296875 C1.10289307 16.25710449 1.10812988 17.08452148 1.11352539 17.93701172 C1 20 1 20 0 22 C-0.28611213 24.96335774 -0.5211406 27.91329029 -0.71875 30.8828125 C-0.78155151 31.77104706 -0.84435303 32.65928162 -0.90905762 33.57443237 C-1.11005171 36.42435754 -1.30539463 39.27463201 -1.5 42.125 C-1.69531183 44.95388688 -1.89188235 47.78267193 -2.09094238 50.61129761 C-2.21462974 52.37197805 -2.33609203 54.13281671 -2.45495605 55.89382935 C-2.80821142 60.95868146 -3.32543817 65.96756609 -4 71 C-5.98 71.495 -5.98 71.495 -8 72 C-8.33 71.01 -8.66 70.02 -9 69 C-8.01 69 -7.02 69 -6 69 C-4.92217106 56.94287172 -3.9020485 44.88413704 -3 32.8125 C-2.17825007 21.85474299 -1.15928487 10.92687655 0 0 Z " fill="#D8674C" transform="translate(168,98)"/>
<path d="M0 0 C2.24113866 3.36170799 2.34538146 4.88442241 2.59765625 8.84765625 C2.67693359 10.01103516 2.75621094 11.17441406 2.83789062 12.37304688 C2.91201172 13.59056641 2.98613281 14.80808594 3.0625 16.0625 C3.21886298 18.44929695 3.37639688 20.8360175 3.53515625 23.22265625 C3.61016357 24.37797852 3.6851709 25.53330078 3.76245117 26.72363281 C3.97193488 29.61291472 4.24260732 32.48364488 4.5546875 35.36328125 C5.00528759 39.64551475 5.10164927 43.81858079 5.0625 48.125 C5.05347656 49.42695312 5.04445313 50.72890625 5.03515625 52.0703125 C5.02355469 53.03710938 5.01195312 54.00390625 5 55 C4.67 55 4.34 55 4 55 C1.98530946 43.36173911 1.41499897 31.78529599 1 20 C0.34 20 -0.32 20 -1 20 C-0.67 13.4 -0.34 6.8 0 0 Z " fill="#DA6548" transform="translate(51,44)"/>
<path d="M0 0 C2 1 2 1 4 4 C4.66 4.33 5.32 4.66 6 5 C5.67 6.65 5.34 8.3 5 10 C7.97 10.495 7.97 10.495 11 11 C8.83032311 11.95465783 7.43671207 12.14401212 5.17578125 11.3984375 C3.4315257 10.64129615 1.71372869 9.82390802 0 9 C0 6.03 0 3.06 0 0 Z M5 0 C6 4 6 4 6 4 Z " fill="#D75330" transform="translate(33,191)"/>
<path d="M0 0 C1.98567708 0.5859375 3.97135417 1.171875 5.95703125 1.7578125 C5.95703125 2.0878125 5.95703125 2.4178125 5.95703125 2.7578125 C2.65703125 3.0878125 -0.64296875 3.4178125 -4.04296875 3.7578125 C-4.04296875 5.7378125 -4.04296875 7.7178125 -4.04296875 9.7578125 C-3.38296875 10.0878125 -2.72296875 10.4178125 -2.04296875 10.7578125 C-1.38296875 11.4178125 -0.72296875 12.0778125 -0.04296875 12.7578125 C-1.03296875 15.3978125 -2.02296875 18.0378125 -3.04296875 20.7578125 C-3.37296875 20.7578125 -3.70296875 20.7578125 -4.04296875 20.7578125 C-4.66409361 15.94409485 -5.15167367 11.17379858 -5.29296875 6.3203125 C-5.31875 5.49660156 -5.34453125 4.67289062 -5.37109375 3.82421875 C-5.2628125 3.14230469 -5.15453125 2.46039062 -5.04296875 1.7578125 C-2.04296875 -0.2421875 -2.04296875 -0.2421875 0 0 Z " fill="#C85838" transform="translate(21.04296875,2.2421875)"/>
<path d="M0 0 C0.33 0 0.66 0 1 0 C1.34011625 3.16597571 1.67083187 6.3328688 2 9.5 C2.09539063 10.386875 2.19078125 11.27375 2.2890625 12.1875 C2.83514946 17.49234474 3.0996753 22.66737152 3 28 C2.67 28 2.34 28 2 28 C2 26.35 2 24.7 2 23 C1.34 23 0.68 23 0 23 C0 15.41 0 7.82 0 0 Z " fill="#DF7459" transform="translate(59,130)"/>
<path d="M0 0 C0.99 0.33 1.98 0.66 3 1 C3 6.94 3 12.88 3 19 C2.34 19 1.68 19 1 19 C0.67 12.73 0.34 6.46 0 0 Z " fill="#DB6549" transform="translate(84,130)"/>
<path d="M0 0 C0.33 0 0.66 0 1 0 C1.10152799 6.7685324 1.03026944 13.30324864 0 20 C-1.32 20.33 -2.64 20.66 -4 21 C-4.33 20.01 -4.66 19.02 -5 18 C-4.01 18 -3.02 18 -2 18 C-1.93941406 16.95199219 -1.87882813 15.90398437 -1.81640625 14.82421875 C-1.73198262 13.44529952 -1.64733553 12.06639395 -1.5625 10.6875 C-1.50352539 9.65206055 -1.50352539 9.65206055 -1.44335938 8.59570312 C-1.25072585 5.52838465 -0.97677283 2.93031848 0 0 Z " fill="#D56041" transform="translate(164,149)"/>
<path d="M0 0 C0 0.66 0 1.32 0 2 C-5.56157448 2.91457003 -9.675665 3.32086397 -15 1 C-14.401875 0.855625 -13.80375 0.71125 -13.1875 0.5625 C-8.02701632 -0.76448152 -5.3119165 -0.78372539 0 0 Z " fill="#D55032" transform="translate(119,219)"/>
<path d="M0 0 C-3.53788686 1.95958144 -7.18780601 3.0589088 -11.0625 4.1875 C-12.29097656 4.55230469 -13.51945313 4.91710937 -14.78515625 5.29296875 C-18 6 -18 6 -21 5 C-16.77050005 2.58314288 -13.87664009 1.65166856 -9 2 C-9 1.34 -9 0.68 -9 0 C-5.93109813 -1.53445094 -3.29905734 -0.54984289 0 0 Z " fill="#D15332" transform="translate(181,203)"/>
<path d="M0 0 C0.33 0 0.66 0 1 0 C0.86149295 3.45866792 0.71295273 6.91683275 0.5625 10.375 C0.50352539 11.85226563 0.50352539 11.85226563 0.44335938 13.359375 C0.40146484 14.30039063 0.35957031 15.24140625 0.31640625 16.2109375 C0.27974854 17.08024902 0.24309082 17.94956055 0.20532227 18.84521484 C0 21 0 21 -1 23 C-1.66 23 -2.32 23 -3 23 C-2.84080078 22.42854248 -2.68160156 21.85708496 -2.51757812 21.26831055 C-2.00724016 19.03173034 -1.81414965 16.99586171 -1.71875 14.70703125 C-1.68136719 13.91232422 -1.64398438 13.11761719 -1.60546875 12.29882812 C-1.53466004 10.62957827 -1.46435444 8.960307 -1.39453125 7.29101562 C-1.10197685 1.10197685 -1.10197685 1.10197685 0 0 Z " fill="#FDDBCC" transform="translate(163,144)"/>
<path d="M0 0 C0 0.66 0 1.32 0 2 C-2.38821127 4.08005497 -4.1367975 5.01154786 -7.3359375 4.96875 C-9.57501398 4.71447002 -11.78277968 4.40093527 -14 4 C-11.17991324 2.11994216 -9.65676336 1.54324907 -6.4375 0.875 C-5.65246094 0.70742187 -4.86742187 0.53984375 -4.05859375 0.3671875 C-2 0 -2 0 0 0 Z " fill="#DD6443" transform="translate(148,171)"/>
<path d="M0 0 C0.99 0.33 1.98 0.66 3 1 C2.67 1.99 2.34 2.98 2 4 C4.31 4.66 6.62 5.32 9 6 C5.57056481 7.18771723 3.62215325 6.80226223 0.25 5.5625 C-0.54921875 5.27503906 -1.3484375 4.98757812 -2.171875 4.69140625 C-2.77515625 4.46324219 -3.3784375 4.23507813 -4 4 C-3.01 3.67 -2.02 3.34 -1 3 C-0.67 2.01 -0.34 1.02 0 0 Z " fill="#D85A39" transform="translate(92,146)"/>
<path d="M0 0 C2.12472576 -0.05386629 4.24983652 -0.09273071 6.375 -0.125 C7.55835937 -0.14820313 8.74171875 -0.17140625 9.9609375 -0.1953125 C13 0 13 0 15 2 C9.3067505 3.18609365 5.57432514 2.66251802 0 1 C0 0.67 0 0.34 0 0 Z " fill="#DA6B4C" transform="translate(101,153)"/>
<path d="M0 0 C2 2 2 2 2.1953125 4.6015625 C2.17210937 5.59929688 2.14890625 6.59703125 2.125 7.625 C2.10695312 8.62789062 2.08890625 9.63078125 2.0703125 10.6640625 C2.03550781 11.82035156 2.03550781 11.82035156 2 13 C1.34 12.67 0.68 12.34 0 12 C-0.44921875 9.53125 -0.44921875 9.53125 -0.6875 6.5 C-0.77386719 5.4996875 -0.86023438 4.499375 -0.94921875 3.46875 C-0.96597656 2.6540625 -0.98273438 1.839375 -1 1 C-0.67 0.67 -0.34 0.34 0 0 Z " fill="#D45234" transform="translate(205,21)"/>
<path d="M0 0 C3.96 0 7.92 0 12 0 C12.33 1.32 12.66 2.64 13 4 C8.71 3.01 4.42 2.02 0 1 C0 0.67 0 0.34 0 0 Z " fill="#D65634" transform="translate(48,204)"/>
<path d="M0 0 C0 0.66 0 1.32 0 2 C-0.99 2.33 -1.98 2.66 -3 3 C-3.99 4.485 -3.99 4.485 -5 6 C-6.98 5.34 -8.96 4.68 -11 4 C-8.07317918 1.07317918 -4.14037627 0 0 0 Z " fill="#DB5F41" transform="translate(132,175)"/>
<path d="M0 0 C5.67276511 -0.29341888 8.99067246 -0.00559652 14 3 C10.45332822 4.25127906 8.27746562 3.72285053 4.75 2.5625 C3.85796875 2.27503906 2.9659375 1.98757812 2.046875 1.69140625 C1.37140625 1.46324219 0.6959375 1.23507813 0 1 C0 0.67 0 0.34 0 0 Z " fill="#FBD6CB" transform="translate(86,173)"/>
<path d="M0 0 C0.33 0 0.66 0 1 0 C1.06058594 0.67546875 1.12117188 1.3509375 1.18359375 2.046875 C1.26738281 2.93890625 1.35117187 3.8309375 1.4375 4.75 C1.51871094 5.63171875 1.59992187 6.5134375 1.68359375 7.421875 C1.96238465 9.69350452 2.38790577 11.79851823 3 14 C2.01 13.67 1.02 13.34 0 13 C0 8.71 0 4.42 0 0 Z " fill="#FAC8BC" transform="translate(62,154)"/>
<path d="" fill="#FFFFFF" transform="translate(0,0)"/>
<path d="" fill="#FFFFFF" transform="translate(0,0)"/>
<path d="" fill="#FFFFFF" transform="translate(0,0)"/>
<path d="" fill="#FFFFFF" transform="translate(0,0)"/>
<path d="" fill="#FFFFFF" transform="translate(0,0)"/>
<path d="" fill="#FFFFFF" transform="translate(0,0)"/>
<path d="" fill="#FFFFFF" transform="translate(0,0)"/>
<path d="" fill="#FFFFFF" transform="translate(0,0)"/>
<path d="" fill="#FFFFFF" transform="translate(0,0)"/>
<path d="" fill="#FFFFFF" transform="translate(0,0)"/>
<path d="" fill="#FFFFFF" transform="translate(0,0)"/>
<path d="" fill="#FFFFFF" transform="translate(0,0)"/>
<path d="" fill="#FFFFFF" transform="translate(0,0)"/>
<path d="" fill="#FFFFFF" transform="translate(0,0)"/>
<path d="" fill="#FFFFFF" transform="translate(0,0)"/>
<path d="" fill="#FFFFFF" transform="translate(0,0)"/>
<path d="" fill="#FFFFFF" transform="translate(0,0)"/>
<path d="" fill="#FFFFFF" transform="translate(0,0)"/>
<path d="" fill="#FFFFFF" transform="translate(0,0)"/>
<path d="" fill="#FFFFFF" transform="translate(0,0)"/>
<path d="" fill="#FFFFFF" transform="translate(0,0)"/>
</svg>
