<?xml version="1.0" encoding="UTF-8"?>
<svg version="1.1" xmlns="http://www.w3.org/2000/svg" width="2048" height="2048">
<path d="M0 0 C675.84 0 1351.68 0 2048 0 C2048 675.84 2048 1351.68 2048 2048 C1372.16 2048 696.32 2048 0 2048 C0 1372.16 0 696.32 0 0 Z " fill="#F6DE1D" transform="translate(0,0)"/>
<path d="M0 0 C1.60767746 0.00123871 1.60767746 0.00123871 3.24783325 0.00250244 C22.94685115 0.03737023 42.36841117 0.78199682 61.69995117 4.86865234 C64.33335756 5.33852503 66.91870399 5.57033989 69.5859375 5.765625 C75.50971261 6.24418779 81.07402508 7.55849448 86.8125 9.0625 C87.85792969 9.33126953 88.90335938 9.60003906 89.98046875 9.87695312 C128.91839835 19.98170418 164.64948716 35.95203606 196.1875 61.3125 C196.72036621 61.73950195 197.25323242 62.16650391 197.80224609 62.60644531 C212.92766631 74.84756811 227.44522629 88.77189376 239.1875 104.3125 C240.17139603 105.55869991 241.15723849 106.8033644 242.14453125 108.046875 C272.1875 146.20284644 272.1875 146.20284644 272.1875 155.3125 C270.77319336 156.390625 270.77319336 156.390625 268.77734375 157.5625 C267.67531616 158.21980103 267.67531616 158.21980103 266.55102539 158.89038086 C265.75043701 159.35968018 264.94984863 159.82897949 264.125 160.3125 C258.23975872 163.83093241 252.42590506 167.40223346 246.75 171.25 C241.23031032 174.98050283 235.6425275 178.58302166 230 182.125 C223.42059681 186.25620687 216.88060208 190.44100165 210.375 194.6875 C202.34961281 199.92463208 194.27905768 205.0868087 186.18823242 210.22216797 C180.67077809 213.7262269 175.16930145 217.25294849 169.6875 220.8125 C154.28908995 230.80532214 138.77633537 240.61972843 123.1875 250.3125 C120.36097764 247.78667151 118.66575471 244.94222306 116.75 241.6875 C108.05224744 227.25624206 98.2765104 214.08337855 86.1875 202.3125 C85.72601562 201.80589844 85.26453125 201.29929687 84.7890625 200.77734375 C64.74978475 179.32065367 34.06273217 170.00694694 5.51953125 169.03125 C-23.47178139 168.44976235 -49.88498225 174.43028176 -71.41845703 194.91113281 C-87.89989522 211.4791635 -92.12437362 232.31683283 -92.13378906 254.7487793 C-92.05867054 268.04986618 -90.24025042 280.48543922 -83.8125 292.3125 C-83.34328125 293.2303125 -82.8740625 294.148125 -82.390625 295.09375 C-73.15379766 312.15988813 -58.0282322 324.22323921 -41.67529297 334.17382812 C-39.81451837 335.31126623 -37.97205572 336.47489721 -36.12890625 337.640625 C-24.09134995 345.11425825 -11.27047322 350.86269883 1.62060547 356.69433594 C5.07841052 358.26301026 8.52698087 359.85019505 11.97265625 361.4453125 C14.08589639 362.42196396 16.19917573 363.3985306 18.3125 364.375 C19.26455322 364.81577881 20.21660645 365.25655762 21.19750977 365.71069336 C27.12705772 368.43391268 33.11443736 370.9289193 39.1875 373.3125 C42.06677624 374.4687768 44.94023112 375.63894238 47.8125 376.8125 C48.51117187 377.09480469 49.20984375 377.37710937 49.9296875 377.66796875 C54.18617762 379.40997674 58.29486809 381.33286446 62.39257812 383.41992188 C64.59217998 384.51373912 66.83147106 385.43429405 69.125 386.3125 C74.63334842 388.46867308 80.01003908 390.87534453 85.3984375 393.3125 C89.15125468 394.99797579 92.90574244 396.59679645 96.75 398.0625 C101.83169835 400.0733561 106.67676135 402.50141733 111.54272461 404.9765625 C116.21865455 407.34863678 120.93322395 409.61503836 125.68408203 411.83300781 C136.82968347 417.04657356 147.61579417 422.78237943 158.36865234 428.75830078 C161.27229176 430.35925077 164.19006683 431.93119867 167.11328125 433.49609375 C168.0885376 434.02025879 169.06379395 434.54442383 170.06860352 435.08447266 C171.91179066 436.07421914 173.75715861 437.0599209 175.60522461 438.04052734 C180.95499902 440.92786873 185.93786706 444.10889326 190.8659668 447.66992188 C193.27537319 449.37467382 195.74112672 450.94614998 198.25 452.5 C209.71654557 459.73174181 220.74173609 467.67499438 231.1875 476.3125 C232.08855469 477.02921875 232.98960937 477.7459375 233.91796875 478.484375 C239.29992796 482.78994237 244.27786475 487.26681756 249.08203125 492.20703125 C251.00428541 494.12928541 252.98004746 495.88047079 255.0625 497.625 C288.44228699 526.52781359 315.2365867 574.83365621 321.69140625 618.41796875 C322.18087035 621.27381833 322.89559891 623.96455687 323.6875 626.75 C325.80075421 634.82946182 326.28093584 643.1404254 326.93798828 651.43994141 C327.08412605 653.12238469 327.24210517 654.80401563 327.42857361 656.48246765 C328.10665683 662.6895665 328.37538536 668.82445761 328.42578125 675.06640625 C328.43548447 676.07327988 328.44518768 677.0801535 328.45518494 678.11753845 C328.48005177 681.37006661 328.49270982 684.6223863 328.5 687.875 C328.50261841 688.98665527 328.50523682 690.09831055 328.50793457 691.24365234 C328.51271254 710.21629886 327.4313882 728.61277131 324.1875 747.3125 C324.0220166 748.26962891 323.8565332 749.22675781 323.68603516 750.21289062 C322.11576869 758.88857285 319.78417396 766.99340716 316.40625 775.16015625 C315.08968246 778.56550884 314.12891641 781.97348448 313.1875 785.5 C311.76869218 790.6697451 309.99919074 795.23140124 307.43359375 799.93359375 C306.15610052 802.37244447 305.09904158 804.87005731 304.02905273 807.4050293 C294.12226956 829.85982968 278.95806736 850.67400925 261.56640625 867.91015625 C259.74878647 869.74568362 258.14764938 871.5375995 256.5625 873.5625 C253.16083759 877.58185558 249.18692929 880.74461224 245.07421875 884.01171875 C243.28055297 885.44131164 241.50764976 886.89789609 239.76953125 888.39453125 C210.74372146 913.26720451 174.36917219 929.87270659 138.1875 941.3125 C136.9809375 941.71082031 135.774375 942.10914063 134.53125 942.51953125 C115.79027864 948.52563928 96.08343656 951.63714922 76.68753052 954.7980957 C74.78270115 955.1094394 72.87945828 955.4304438 70.97631836 955.75195312 C51.28174579 958.84374727 31.19732918 958.52251801 11.3125 958.5 C10.15119568 958.49873108 8.98989136 958.49746216 7.793396 958.49615479 C-31.92116778 958.41375519 -70.87112264 955.25066979 -109.36914062 944.96337891 C-111.54839689 944.38285361 -113.73175165 943.83069306 -115.921875 943.29296875 C-130.19428576 939.69423857 -144.2083295 934.91965147 -157.8125 929.3125 C-158.61502197 928.98282227 -159.41754395 928.65314453 -160.24438477 928.31347656 C-182.07588211 919.2700934 -203.91191843 909.1975829 -223.1171875 895.265625 C-225.27183861 893.70428362 -227.44171551 892.18084806 -229.6328125 890.671875 C-245.46180486 879.73162433 -259.99102545 867.69333243 -273.8125 854.3125 C-274.42931641 853.71759766 -275.04613281 853.12269531 -275.68164062 852.50976562 C-283.27164878 845.15818704 -290.27430253 837.63047145 -296.8125 829.3125 C-298.26901908 827.56098971 -299.72739437 825.81102156 -301.1875 824.0625 C-314.38642836 807.85448952 -325.81488215 790.36115878 -336.125 772.1875 C-336.49189941 771.54304932 -336.85879883 770.89859863 -337.23681641 770.23461914 C-338.8761161 767.28012314 -340.08057362 764.60238671 -340.8125 761.3125 C-339.71035156 760.70664063 -338.60820313 760.10078125 -337.47265625 759.4765625 C-329.04769864 754.82966743 -320.68358148 750.10264591 -312.40673828 745.19677734 C-306.88573072 741.92949921 -301.32568652 738.73544761 -295.75 735.5625 C-288.18182431 731.25301814 -280.64331633 726.89588153 -273.125 722.5 C-259.25411034 714.39081279 -245.33265353 706.3701526 -231.40869141 698.35253906 C-228.02211323 696.40229547 -224.63594625 694.45134049 -221.25 692.5 C-220.16750977 691.87641602 -219.08501953 691.25283203 -217.96972656 690.61035156 C-211.02972038 686.60723852 -204.10880538 682.57359645 -197.23608398 678.45581055 C-192.85893231 675.85347844 -188.38773287 673.54961717 -183.8125 671.3125 C-183.50658936 671.77922119 -183.20067871 672.24594238 -182.88549805 672.72680664 C-175.81934735 683.48193268 -168.58708967 694.05612851 -160.8125 704.3125 C-160.11012207 705.2413501 -160.11012207 705.2413501 -159.39355469 706.18896484 C-154.47050403 712.66745788 -149.54361595 718.89249313 -143.640625 724.51953125 C-141.73935593 726.38423745 -140.03171512 728.34214428 -138.3125 730.375 C-134.78624175 734.44558 -130.9765291 737.90434004 -126.8125 741.3125 C-126.31862793 741.71871582 -125.82475586 742.12493164 -125.31591797 742.54345703 C-102.54069794 761.17648927 -76.03598854 776.37515956 -46.80078125 781.734375 C-44.0381219 782.26885027 -41.48762062 783.01559117 -38.8125 783.875 C4.19396403 795.64910399 56.02514625 786.71364962 94.12939453 765.50976562 C98.17466351 763.15650358 101.70274917 760.41722656 105.1875 757.3125 C106.28191406 756.42884766 106.28191406 756.42884766 107.3984375 755.52734375 C120.3766969 744.74165719 128.4805554 730.31611165 133.1875 714.3125 C133.5484375 713.31347656 133.909375 712.31445312 134.28125 711.28515625 C135.86757934 705.67470518 135.47524216 699.77769516 135.4375 694 C135.44523437 692.82759766 135.45296875 691.65519531 135.4609375 690.44726562 C135.44537804 683.48051593 134.87490459 677.07044934 133.1875 670.3125 C132.90390625 669.10722656 132.6203125 667.90195313 132.328125 666.66015625 C124.80014413 638.89247243 103.18704431 620.09967235 79.05932617 606.11523438 C70.92886332 601.51200515 62.61333012 597.24665229 54.3046875 592.9765625 C51.25998408 591.40906394 48.25837204 589.8041475 45.30078125 588.078125 C42.70597065 586.60653856 40.2889302 585.45962101 37.5 584.4375 C33.55837373 582.91964392 29.82425721 581.17120009 26.0625 579.25 C22.16636516 577.26470836 18.3404177 575.53244732 14.22265625 574.078125 C10.8140635 572.79581371 7.53986607 571.22022137 4.234375 569.6953125 C0.94760281 568.20362358 -2.36499434 566.78521907 -5.6875 565.375 C-10.29324658 563.41617648 -14.84626419 561.3805271 -19.375 559.25 C-24.70896874 556.76426699 -30.11260803 554.60316709 -35.6171875 552.52734375 C-43.45700037 549.5466814 -51.04749566 546.25499026 -58.51171875 542.43359375 C-61.22958931 541.10926633 -63.98977447 540.0680451 -66.83203125 539.046875 C-73.59112788 536.54054331 -79.99731072 533.24302991 -86.41796875 529.98828125 C-88.78550596 528.81949706 -91.14706268 527.69282139 -93.55078125 526.60546875 C-105.17813221 521.32792677 -116.2027667 515.15644863 -127.25830078 508.77685547 C-129.37928825 507.5608659 -131.50858231 506.36652678 -133.65234375 505.19140625 C-155.22674511 493.26263499 -175.2676339 478.51147758 -193.8125 462.3125 C-194.62589844 461.61125 -195.43929688 460.91 -196.27734375 460.1875 C-208.44001124 449.50216151 -219.88160016 438.1086539 -229.50927734 425.07324219 C-230.86100483 423.24696668 -232.23562589 421.43958921 -233.61328125 419.6328125 C-243.64919578 406.35660269 -251.64281101 392.30964761 -258.8125 377.3125 C-259.18890625 376.52875 -259.5653125 375.745 -259.953125 374.9375 C-260.96217168 372.74838178 -261.89682222 370.54256396 -262.8125 368.3125 C-263.0688623 367.69181641 -263.32522461 367.07113281 -263.58935547 366.43164062 C-267.36379785 357.2281481 -270.63704198 348.12015313 -272.98828125 338.44921875 C-273.71420121 335.39624434 -273.71420121 335.39624434 -274.80151367 332.93286133 C-275.80075632 330.34293829 -276.35091069 327.98244387 -276.8125 325.25 C-276.97645264 324.29488525 -277.14040527 323.33977051 -277.30932617 322.35571289 C-277.47537354 321.35145264 -277.6414209 320.34719238 -277.8125 319.3125 C-277.98692627 318.27665771 -278.16135254 317.24081543 -278.34106445 316.17358398 C-278.68404373 314.12773422 -279.02437846 312.081439 -279.36181641 310.03466797 C-279.724244 307.84557386 -280.10018714 305.65871953 -280.48046875 303.47265625 C-283.10440911 287.82765848 -283.08548757 271.88512438 -283.125 256.0625 C-283.12761841 255.05214691 -283.13023682 254.04179382 -283.13293457 253.00082397 C-283.13752845 236.38887458 -282.01103521 220.64231129 -278.8125 204.3125 C-278.50733742 202.58885536 -278.2038601 200.86491121 -277.90234375 199.140625 C-271.89193309 166.42093737 -257.04274956 135.24016711 -237.8125 108.3125 C-237.39145996 107.72033691 -236.97041992 107.12817383 -236.53662109 106.51806641 C-229.73740292 97.06268971 -221.89051522 88.67132687 -213.8125 80.3125 C-213.31041016 79.78849609 -212.80832031 79.26449219 -212.29101562 78.72460938 C-202.03016496 68.04380575 -190.58005148 59.23190254 -178.60009766 50.60058594 C-177.38857128 49.72759862 -176.17999229 48.85050898 -174.97412109 47.96972656 C-171.72187136 45.60971799 -168.49349963 43.45126046 -164.9375 41.5625 C-163.98875 41.05847656 -163.04 40.55445313 -162.0625 40.03515625 C-160.99 39.46667969 -159.9175 38.89820313 -158.8125 38.3125 C-157.56175149 37.62505802 -156.31179338 36.93617661 -155.0625 36.24609375 C-122.3093232 18.3138777 -83.71441735 5.25244833 -46.2409668 2.65869141 C-42.77007724 2.40840672 -39.33451292 2.01470752 -35.88346863 1.56193542 C-23.93223125 0.03850549 -12.03269782 -0.03920844 0 0 Z " fill="#000000" transform="translate(1559.8125,928.6875)"/>
<path d="M0 0 C63.69 0 127.38 0 193 0 C193.04026156 78.85877575 193.04026156 78.85877575 193.05130005 103.2649231 C193.05169472 104.13534746 193.05208938 105.00577182 193.05249601 105.90257267 C193.06575119 135.21563654 193.07625044 164.52870072 193.08468628 193.84176636 C193.08496239 194.79876037 193.08523851 195.75575438 193.08552299 196.74174821 C193.09150943 217.54206163 193.09704971 238.34237515 193.10213066 259.14268882 C193.10462523 269.34382382 193.10721835 279.54495879 193.10986328 289.74609375 C193.1101248 290.76120492 193.11038632 291.7763161 193.11065576 292.82218822 C193.11917159 325.69814897 193.13418908 358.57410283 193.15259444 391.45005941 C193.171481 425.24709068 193.18377584 459.04411813 193.18782998 492.84115458 C193.18840625 497.61968773 193.18905752 502.39822087 193.18975449 507.176754 C193.18988933 508.11719617 193.19002418 509.05763834 193.19016311 510.02657876 C193.1925224 525.13760682 193.2017873 540.24862306 193.21366407 555.35964631 C193.22546886 570.5679658 193.22992839 585.77627362 193.22700275 600.98459752 C193.22548683 610.00932256 193.22949013 619.03400475 193.24159509 628.05872202 C193.24914432 634.10242792 193.24929288 640.14610604 193.24366363 646.18981393 C193.24067 649.62370198 193.24179994 653.05744475 193.24976636 656.49133421 C193.2838775 672.1122121 192.78704239 687.47538034 191 703 C190.91790827 703.71942642 190.83581653 704.43885285 190.75123717 705.18008007 C190.28084887 709.25295219 189.75620871 713.31469812 189.1875 717.375 C189.01790771 718.58760498 188.84831543 719.80020996 188.67358398 721.04956055 C186.27380249 737.62701276 183.18560291 754.07902539 177.7109375 769.93945312 C176.91683017 772.24105541 176.1465546 774.55011929 175.375 776.859375 C159.19476866 824.74095917 130.5670545 867.54513187 89 897 C88.40751465 897.43183594 87.8150293 897.86367187 87.20458984 898.30859375 C68.52769144 911.89179259 46.7036137 922.38329859 24.8125 929.5625 C23.62648193 929.95453613 22.44046387 930.34657227 21.21850586 930.75048828 C12.5441694 933.58096777 3.89180404 935.96967004 -5 938 C-6.93798849 938.51901275 -8.87550877 939.03977771 -10.8125 939.5625 C-18.39790492 941.47452356 -26.14579459 942.5284547 -33.87866211 943.65869141 C-35.40031511 943.90351485 -36.91526508 944.19147921 -38.42382812 944.50708008 C-73.92682823 951.3001579 -118.57496139 950.74621476 -154 944 C-154.33 943.67 -154.66 943.34 -155 943 C-156.77715427 942.65507264 -158.56492391 942.36449212 -160.35546875 942.09765625 C-162.00192383 941.84532227 -162.00192383 941.84532227 -163.68164062 941.58789062 C-165.99920562 941.24057866 -168.31691191 940.89420803 -170.63476562 940.54882812 C-171.73884766 940.37931641 -172.84292969 940.20980469 -173.98046875 940.03515625 C-174.99004639 939.8844165 -175.99962402 939.73367676 -177.03979492 939.57836914 C-180.14759083 938.97116349 -183.00488481 938.01853494 -186 937 C-187.53820847 936.67434612 -189.08284711 936.37737036 -190.6328125 936.11328125 C-196.55689551 934.97522789 -202.17202401 933.13035674 -207.875 931.1875 C-208.93348145 930.83002686 -209.99196289 930.47255371 -211.08251953 930.10424805 C-220.90693696 926.75195146 -230.3298536 923.00646357 -239.55078125 918.2109375 C-241.41408547 917.28968661 -243.31540575 916.44488923 -245.23046875 915.63671875 C-270.52533525 904.91112441 -295.72191356 887.55869905 -315 868 C-316.22249304 866.79798709 -317.44658273 865.59759684 -318.671875 864.3984375 C-326.28040161 856.91066641 -333.42618264 849.41909943 -340 841 C-341.49823522 839.20685732 -342.99827499 837.41522106 -344.5 835.625 C-348.92382359 830.21214133 -352.91649616 824.56103541 -356.81445312 818.76074219 C-358.06051775 816.91012067 -359.31894368 815.06827987 -360.578125 813.2265625 C-364.82500104 806.98078329 -368.91526169 800.73950578 -372.4140625 794.03515625 C-373.70698233 791.5607752 -375.03898379 789.1214349 -376.3984375 786.68359375 C-377.24507893 785.14338704 -378.09143282 783.60302224 -378.9375 782.0625 C-379.35201416 781.32789551 -379.76652832 780.59329102 -380.19360352 779.83642578 C-380.57186279 779.13888184 -380.95012207 778.44133789 -381.33984375 777.72265625 C-381.68394287 777.10140869 -382.02804199 776.48016113 -382.38256836 775.84008789 C-383.21247801 773.36676681 -383.124152 772.36719914 -382 770 C-379.63354492 768.17578125 -379.63354492 768.17578125 -376.48046875 766.3125 C-375.91485229 765.97350174 -375.34923584 765.63450348 -374.76647949 765.28523254 C-372.91355123 764.17836682 -371.05078329 763.08932737 -369.1875 762 C-367.89813296 761.23386206 -366.60948154 760.46651855 -365.3215332 759.69799805 C-362.74418164 758.1624473 -360.16310586 756.63351168 -357.578125 755.11083984 C-352.93103756 752.37277224 -348.3094788 749.59266999 -343.6875 746.8125 C-342.10417803 745.86456435 -340.52084462 744.91664781 -338.9375 743.96875 C-332.33915734 740.0097444 -325.77270927 735.99834573 -319.20263672 731.99267578 C-313.52210467 728.5307576 -307.83072799 725.0891595 -302.12060547 721.67626953 C-294.88041179 717.3415384 -287.67589909 712.94778252 -280.46505737 708.56448364 C-271.99068081 703.41389244 -263.50413692 698.28454199 -254.98950195 693.20068359 C-250.9451793 690.78227228 -246.91872727 688.33909431 -242.9140625 685.85546875 C-241.6758374 685.08952393 -241.6758374 685.08952393 -240.41259766 684.30810547 C-238.84949073 683.33911204 -237.28908217 682.36574668 -235.73193359 681.38720703 C-235.03664551 680.95649902 -234.34135742 680.52579102 -233.625 680.08203125 C-233.01914062 679.70280518 -232.41328125 679.3235791 -231.7890625 678.93286133 C-229.87977774 677.93731315 -228.10173624 677.43834394 -226 677 C-225.60844727 677.69335449 -225.21689453 678.38670898 -224.81347656 679.10107422 C-216.70743939 693.41322216 -208.48863441 707.54454519 -199 721 C-198.60119629 721.56847656 -198.20239258 722.13695312 -197.79150391 722.72265625 C-179.84915332 748.08178947 -156.33532462 767.4322423 -125.25537109 773.53930664 C-121.70359562 774.04194653 -118.30973122 774.12959023 -114.72265625 774.1328125 C-113.69004921 774.13424759 -113.69004921 774.13424759 -112.63658142 774.13571167 C-111.18179228 774.13638933 -109.72700005 774.13456402 -108.2722168 774.13037109 C-106.10002403 774.12509121 -103.92804515 774.13029143 -101.75585938 774.13671875 C-82.80397693 774.19222334 -82.80397693 774.19222334 -64.25 770.75 C-63.04452515 770.41621338 -63.04452515 770.41621338 -61.81469727 770.07568359 C-51.33615498 767.07577408 -42.62769413 762.67769497 -34 756 C-33.23816406 755.42765625 -32.47632813 754.8553125 -31.69140625 754.265625 C-10.91068539 737.41055158 -4.71347181 707.1765513 -2 682 C-1.91192322 681.18321641 -1.82384643 680.36643282 -1.73310066 679.52489821 C-1.0559815 672.72237366 -0.85466436 666.00040442 -0.8613348 659.16721821 C-0.85707147 657.44883166 -0.85707147 657.44883166 -0.85272202 655.69573024 C-0.84441378 651.86496127 -0.84310985 648.0342227 -0.84178162 644.20344543 C-0.83776161 641.42620883 -0.83225469 638.64897562 -0.82681805 635.87174147 C-0.81579111 629.83777501 -0.80840107 623.80381269 -0.80341911 617.76983833 C-0.79599457 608.79760127 -0.78290719 599.82537865 -0.76867336 590.85315012 C-0.74488713 575.75893914 -0.72567275 560.6647256 -0.70907402 545.57050514 C-0.69262687 530.62774109 -0.67414154 515.68498184 -0.65294075 500.74222374 C-0.65162314 499.81274119 -0.65030554 498.88325863 -0.648948 497.92560994 C-0.64224581 493.20513831 -0.63550727 488.48466673 -0.62875474 483.76419517 C-0.58100583 450.33881381 -0.53781674 416.91342797 -0.49731445 383.48803711 C-0.45795932 351.01798171 -0.41653551 318.54793002 -0.37231445 286.07788086 C-0.37095192 285.07681613 -0.36958939 284.0757514 -0.36818558 283.04435138 C-0.35450007 272.99114579 -0.34077254 262.93794027 -0.32701423 252.88473478 C-0.29898853 232.40563468 -0.27124326 211.92653419 -0.2436676 191.44743347 C-0.2423994 190.50586059 -0.2411312 189.56428772 -0.23982458 188.59418233 C-0.20097166 159.73692809 -0.16330727 130.87967248 -0.1268158 102.02241516 C-0.1257794 101.20320854 -0.12474301 100.38400192 -0.12367522 99.53997085 C-0.08171672 66.35998148 -0.04101652 33.17999054 0 0 Z " fill="#000000" transform="translate(922,940)"/>
<path d="M0 0 C0.66 0.33 1.32 0.66 2 1 C-2.29 5.29 -6.58 9.58 -11 14 C-11.66 13.67 -12.32 13.34 -13 13 C-8.96476648 8.18876004 -4.95532767 3.86757281 0 0 Z " fill="#D0BC19" transform="translate(1496,1116)"/>
</svg>
